<?xml version="1.0" encoding="UTF-8"?><svg xmlns="http://www.w3.org/2000/svg" viewBox="0 0 452.34 199.79"><defs><style>.b{fill:#eefaff;}.c,.d{fill:#009eff;}.e{fill:#82d1ff;}.e,.d{mix-blend-mode:overlay;}.f{fill:#4ab2fe;}.f,.g,.h{mix-blend-mode:screen;}.g{fill:#ace6ff;}.h{fill:#c9dcfe;}.i{isolation:isolate;}</style></defs><g class="i"><g id="a"><polygon class="e" points="311.32 181.75 119.56 149.99 195.17 92.29 311.32 181.75"/><polygon class="c" points="88.54 92.29 75.44 85.62 75.43 85.62 19.95 199.78 195.17 92.29 88.54 92.29"/><polygon class="b" points="452.25 19.2 270.43 9.6 270.34 9.61 320.42 68.91 452.31 19.21 452.25 19.2"/><polygon class="c" points="270.31 9.61 188.05 19.57 195.17 92.29 270.32 9.61 270.31 9.61"/><g><polygon class="d" points="320.42 68.91 195.17 92.29 311.32 181.74 311.32 181.74 320.42 68.91"/><polygon class="d" points="311.32 181.75 311.32 181.74 311.32 181.75 311.32 181.75"/></g><polygon class="c" points="144.02 198.55 119.56 149.99 19.95 199.78 .02 148.76 0 148.77 19.93 199.79 144.01 198.56 311.3 181.76 311.32 181.75 144.02 198.55"/><polygon class="h" points="19.95 199.79 119.56 150 195.17 92.31 19.95 199.79"/><polygon class="f" points="195.17 92.31 188.05 19.57 75.44 85.63 88.54 92.31 195.17 92.31"/><polygon class="f" points="144.02 198.56 311.32 181.76 119.56 150 144.02 198.56"/><polygon class="f" points=".02 148.77 19.95 199.79 75.44 85.63 .02 148.77"/><polygon class="f" points="386.22 0 270.33 9.61 452.34 19.22 386.22 0"/><polygon class="f" points="320.42 68.93 311.32 181.76 452.34 19.22 320.42 68.93"/><polygon class="g" points="270.33 9.61 195.17 92.31 320.42 68.93 270.33 9.61"/></g></g></svg>