<?xml version="1.0" encoding="UTF-8"?><svg id="a" xmlns="http://www.w3.org/2000/svg" viewBox="0 0 194.4 469.4"><defs><style>.c{fill:#eefaff;}.d{fill:#009eff;}.e{fill:#c9dcfe;}.f{fill:#ace6ff;}.g{fill:#82d1ff;}.h{fill:#4ab2fe;}</style></defs><g id="b"><polygon class="g" points="194.4 187.8 99.4 357.4 70.8 266.7 194.4 187.8"/><polygon class="d" points="34.6 367 23.8 377 23.8 377 112.3 468 70.8 266.7 34.6 367"/><polygon class="c" points="89.5 .1 18.6 167.8 18.6 167.9 91.4 140.9 89.5 0 89.5 .1"/><polygon class="d" points="18.6 167.9 0 248.6 70.8 266.7 18.6 167.9"/><polygon class="d" points="91.4 140.9 70.8 266.7 194.4 187.8 194.4 187.8 91.4 140.9"/><polygon class="d" points="153.4 350.9 99.4 357.4 112.3 468 57.6 469.4 57.6 469.4 112.3 468 153.4 350.9 194.4 187.9 194.4 187.8 153.4 350.9"/><polygon class="e" points="112.4 468 99.4 357.4 70.8 266.7 112.4 468"/><polygon class="h" points="70.8 266.7 0 248.6 23.9 377 34.6 367 70.8 266.7"/><polygon class="h" points="153.4 350.9 194.4 187.8 99.4 357.4 153.4 350.9"/><polygon class="h" points="57.6 469.4 112.4 468 23.9 377 57.6 469.4"/><polygon class="h" points="49 55.6 18.6 167.9 89.5 0 49 55.6"/><polygon class="h" points="91.4 140.9 194.4 187.8 89.5 0 91.4 140.9"/><polygon class="f" points="18.6 167.9 70.8 266.7 91.4 140.9 18.6 167.9"/></g></svg>