<?xml version="1.0" encoding="UTF-8"?><svg xmlns="http://www.w3.org/2000/svg" viewBox="0 0 453.32 200.22"><defs><style>.b{fill:#fff0ee;}.c,.d{fill:#ff2000;}.e{fill:#ff8979;}.e,.d{mix-blend-mode:overlay;}.f{fill:#fe6146;}.f,.g,.h{mix-blend-mode:screen;}.g{fill:#fed6c5;}.h{fill:#ffb3ab;}.i{isolation:isolate;}</style></defs><g class="i"><g id="a"><polygon class="e" points="311.99 182.14 119.82 150.31 195.6 92.49 311.99 182.14"/><polygon class="c" points="88.73 92.49 75.6 85.8 75.6 85.81 19.99 200.21 195.6 92.49 88.73 92.49"/><polygon class="b" points="453.23 19.24 271.02 9.62 270.93 9.63 321.11 69.06 453.29 19.26 453.23 19.24"/><polygon class="c" points="270.9 9.63 188.46 19.61 195.6 92.49 270.9 9.63 270.9 9.63"/><g><polygon class="d" points="321.11 69.06 195.6 92.49 311.99 182.14 312 182.13 321.11 69.06"/><polygon class="d" points="311.99 182.14 311.99 182.14 311.99 182.14 311.99 182.14"/></g><polygon class="c" points="144.34 198.98 119.82 150.31 19.99 200.21 .02 149.08 0 149.1 19.98 200.22 144.32 198.99 311.98 182.16 311.99 182.14 144.34 198.98"/><polygon class="g" points="19.99 200.22 119.82 150.33 195.6 92.51 19.99 200.22"/><polygon class="f" points="195.6 92.51 188.46 19.62 75.6 85.82 88.73 92.51 195.6 92.51"/><polygon class="f" points="144.34 198.99 311.99 182.16 119.82 150.33 144.34 198.99"/><polygon class="f" points=".02 149.1 19.99 200.22 75.6 85.82 .02 149.1"/><polygon class="f" points="387.05 0 270.92 9.63 453.32 19.26 387.05 0"/><polygon class="f" points="321.11 69.08 311.99 182.16 453.32 19.26 321.11 69.08"/><polygon class="h" points="270.92 9.63 195.6 92.51 321.11 69.08 270.92 9.63"/></g></g></svg>