<?xml version="1.0" encoding="utf-8"?>
<!-- Generator: Adobe Illustrator 26.2.1, SVG Export Plug-In . SVG Version: 6.00 Build 0)  -->
<svg version="1.1" id="Layer_1" xmlns="http://www.w3.org/2000/svg" xmlns:xlink="http://www.w3.org/1999/xlink" x="0px" y="0px"
	 viewBox="0 0 1920 1080" style="enable-background:new 0 0 1920 1080;" xml:space="preserve">
<style type="text/css">
	.st0{fill:#50EFFF;}
	.st1{fill:#494949;}
	.st2{fill:#636363;}
	.st3{fill:#3A3A3A;}
	.st4{fill:#C4C4C4;}
	.st5{fill:#82D1FF;}
	.st6{fill:#FCF8E3;}
	.st7{fill:#F6FF5C;}
	.st8{fill:#009EFF;}
	.st9{fill:#EEFAFF;}
	.st10{fill:#C9DCFE;}
	.st11{fill:#4AB2FE;}
	.st12{fill:#ACE6FF;}
	.st13{fill:#FF8979;}
	.st14{fill:#FF2000;}
	.st15{fill:#FFF0EE;}
	.st16{fill:#FED6C5;}
	.st17{fill:#FE6146;}
	.st18{fill:#FFB3AB;}
	.st19{fill:#FF5252;}
	.st20{fill:#F4F4D3;}
</style>
<polygon class="st0" points="352,160 462.4,146.6 617.8,133.7 706.5,159.5 517.3,377.5 292.9,400.1 126.5,401.7 99.8,333.3 
	200.9,248.6 "/>
<polygon class="st1" points="218.5,257.6 361.5,257.6 126.5,401.7 200.9,248.6 "/>
<polygon class="st2" points="352,160 361.5,257.6 517.3,377.5 529.5,226.2 462.4,146.6 "/>
<polygon class="st3" points="260.1,334.9 126.5,401.7 292.9,400.1 "/>
<polygon class="st4" points="517.3,377.5 260.1,334.9 361.5,257.6 "/>
<polygon class="st5" points="517.3,894.8 260.1,852.2 361.5,774.8 "/>
<polygon class="st6" points="361.5,257.6 462.4,146.6 529.5,226.2 "/>
<polygon class="st7" points="706.5,159.5 529.5,226.2 462.4,146.6 "/>
<polygon class="st8" points="218.5,774.8 200.9,765.9 200.9,765.9 126.5,919 361.5,774.8 "/>
<polygon class="st9" points="706.4,676.8 462.5,663.9 462.4,663.9 529.5,743.5 706.4,676.8 "/>
<polygon class="st8" points="462.3,663.9 352,677.3 361.5,774.8 462.3,663.9 "/>
<g>
	<polygon class="st8" points="529.5,743.5 361.5,774.8 517.3,894.8 517.3,894.8 	"/>
	<polygon class="st8" points="517.3,894.8 517.3,894.8 517.3,894.8 	"/>
</g>
<polygon class="st8" points="292.9,917.4 260.1,852.2 126.5,919 99.8,850.6 99.7,850.6 126.5,919 292.9,917.4 517.3,894.8 
	517.3,894.8 "/>
<polygon class="st10" points="126.5,919 260.1,852.2 361.5,774.8 "/>
<polygon class="st11" points="361.5,774.8 352,677.3 200.9,765.9 218.5,774.8 "/>
<polygon class="st11" points="292.9,917.4 517.3,894.8 260.1,852.2 "/>
<polygon class="st11" points="99.8,850.6 126.5,919 200.9,765.9 "/>
<polygon class="st11" points="617.8,651 462.4,663.9 706.5,676.8 "/>
<polygon class="st11" points="529.5,743.5 517.3,894.8 706.5,676.8 "/>
<polygon class="st12" points="462.4,663.9 361.5,774.8 529.5,743.5 "/>
<polygon class="st13" points="1316.2,894.8 1059,852.2 1160.5,774.8 "/>
<polygon class="st14" points="1017.4,774.8 999.9,765.9 999.8,765.9 925.4,919 1160.5,774.8 "/>
<polygon class="st15" points="1505.3,676.8 1261.4,663.9 1261.3,663.9 1328.4,743.5 1505.4,676.8 "/>
<polygon class="st14" points="1261.2,663.9 1150.9,677.3 1160.5,774.8 1261.2,663.9 "/>
<g>
	<polygon class="st14" points="1328.4,743.5 1160.5,774.8 1316.2,894.8 1316.2,894.8 	"/>
	<polygon class="st14" points="1316.2,894.8 1316.2,894.8 1316.2,894.8 	"/>
</g>
<polygon class="st14" points="1091.8,917.4 1059,852.2 925.4,919 898.7,850.6 898.7,850.6 925.4,919 1091.8,917.4 1316.2,894.8 
	1316.2,894.8 "/>
<polygon class="st16" points="925.4,919 1059,852.2 1160.5,774.8 "/>
<polygon class="st17" points="1160.5,774.8 1150.9,677.3 999.8,765.9 1017.4,774.8 "/>
<polygon class="st17" points="1091.8,917.4 1316.2,894.8 1059,852.2 "/>
<polygon class="st17" points="898.7,850.6 925.4,919 999.8,765.9 "/>
<polygon class="st17" points="1416.7,651 1261.3,663.9 1505.4,676.8 "/>
<polygon class="st17" points="1328.4,743.5 1316.2,894.8 1505.4,676.8 "/>
<polygon class="st18" points="1261.3,663.9 1160.5,774.8 1328.4,743.5 "/>
<polygon class="st19" points="1040.9,160 1151.3,146.6 1306.7,133.7 1395.4,159.5 1206.3,377.5 981.9,400.1 815.4,401.7 
	788.7,333.3 889.9,248.6 "/>
<polygon class="st1" points="907.4,257.6 1050.5,257.6 815.4,401.7 889.9,248.6 "/>
<polygon class="st2" points="1040.9,160 1050.5,257.6 1206.3,377.5 1218.5,226.2 1151.3,146.6 "/>
<polygon class="st3" points="949.1,334.9 815.4,401.7 981.9,400.1 "/>
<polygon class="st4" points="1206.3,377.5 949.1,334.9 1050.5,257.6 "/>
<polygon class="st6" points="1050.5,257.6 1151.3,146.6 1218.5,226.2 "/>
<polygon class="st20" points="1395.4,159.5 1218.5,226.2 1151.3,146.6 "/>
</svg>
